<svg xmlns="http://www.w3.org/2000/svg" xmlns:xlink="http://www.w3.org/1999/xlink" width="500" zoomAndPan="magnify" viewBox="0 0 375 374.999991" height="500" preserveAspectRatio="xMidYMid meet" version="1.0"><defs><g/></defs><path fill="#00660a" d="M 218.691406 0.03125 C 218.691406 0.03125 117.578125 43.539062 155.875 123.910156 C 243.394531 107.203125 218.691406 0.03125 218.691406 0.03125 " fill-opacity="1" fill-rule="nonzero"/><path fill="#9acd32" d="M 265.179688 38.109375 C 265.179688 38.109375 155.132812 34.898438 155.878906 123.90625 C 242.273438 145.679688 265.179688 38.109375 265.179688 38.109375 " fill-opacity="1" fill-rule="nonzero"/><path fill="#9acd32" d="M 194.703125 174.078125 C 164.558594 174.078125 140.035156 198.574219 140.035156 228.6875 C 140.035156 258.800781 164.558594 283.300781 194.703125 283.300781 C 224.847656 283.300781 249.375 258.800781 249.375 228.6875 C 249.375 198.574219 224.847656 174.078125 194.703125 174.078125 Z M 194.703125 321.5625 C 169.871094 321.5625 146.523438 311.898438 128.964844 294.359375 C 111.402344 276.820312 101.734375 253.496094 101.734375 228.6875 C 101.734375 203.882812 111.402344 180.558594 128.964844 163.019531 C 146.523438 145.476562 169.871094 135.816406 194.703125 135.816406 C 219.539062 135.816406 242.882812 145.476562 260.445312 163.019531 C 278.003906 180.558594 287.675781 203.882812 287.675781 228.6875 C 287.675781 253.496094 278.003906 276.820312 260.445312 294.359375 C 242.882812 311.898438 219.539062 321.5625 194.703125 321.5625 " fill-opacity="1" fill-rule="nonzero"/><path fill="#00660a" d="M 303.382812 281.808594 C 297.328125 281.808594 291.601562 284.640625 288.011719 289.511719 C 266.894531 318.117188 232.933594 336.710938 194.703125 336.710938 C 156.476562 336.710938 122.515625 318.117188 101.398438 289.511719 C 97.804688 284.640625 92.078125 281.808594 86.023438 281.808594 C 70.335938 281.808594 61.210938 299.648438 70.523438 312.261719 C 75.101562 318.464844 80.164062 324.339844 85.6875 329.859375 C 99.839844 343.996094 116.328125 355.097656 134.6875 362.859375 C 153.707031 370.894531 173.898438 374.96875 194.703125 374.96875 C 215.507812 374.96875 235.703125 370.894531 254.71875 362.859375 C 273.082031 355.097656 289.566406 343.996094 303.722656 329.859375 C 309.242188 324.339844 314.308594 318.464844 318.882812 312.261719 C 328.199219 299.648438 319.074219 281.808594 303.382812 281.808594 " fill-opacity="1" fill-rule="nonzero"/><g fill="#00660a" fill-opacity="1"><g transform="translate(154.436289, 257.36869)"><g><path d="M 54.191406 -22.675781 L 61.519531 0 L 81.289062 0 L 52.679688 -80.242188 L 30.121094 -80.242188 L 1.164062 0 L 20.582031 0 L 28.027344 -22.675781 Z M 41.167969 -64.425781 L 49.65625 -36.980469 L 32.5625 -36.980469 Z M 41.167969 -64.425781 "/></g></g></g></svg>