<svg xmlns="http://www.w3.org/2000/svg" xmlns:xlink="http://www.w3.org/1999/xlink" width="500" zoomAndPan="magnify" viewBox="0 0 375 374.999991" height="500" preserveAspectRatio="xMidYMid meet" version="1.0"><defs><clipPath id="f16c94cefd"><path d="M 18.828125 0 L 188 0 L 188 375 L 18.828125 375 Z M 18.828125 0 " clip-rule="nonzero"/></clipPath><clipPath id="31e625d6cd"><path d="M 128 0 L 356.328125 0 L 356.328125 375 L 128 375 Z M 128 0 " clip-rule="nonzero"/></clipPath></defs><path fill="#100f0d" d="M 187.578125 259.332031 C 180.617188 273.925781 171.574219 287.503906 160.722656 299.578125 C 168.484375 311.863281 177.5 323.300781 187.578125 333.707031 C 197.660156 323.300781 206.671875 311.863281 214.433594 299.578125 C 203.582031 287.503906 194.539062 273.925781 187.578125 259.332031 " fill-opacity="1" fill-rule="nonzero"/><g clip-path="url(#f16c94cefd)"><path fill="#00660a" d="M 132.8125 324.402344 C 88.648438 293.226562 61.699219 241.890625 61.699219 187.480469 C 61.699219 133.074219 88.648438 81.738281 132.8125 50.5625 L 132.8125 0.109375 L 121.859375 6.617188 C 91.050781 24.914062 65.242188 50.953125 47.222656 81.914062 C 28.644531 113.847656 18.824219 150.351562 18.824219 187.480469 C 18.824219 224.613281 28.644531 261.117188 47.222656 293.050781 C 65.242188 324.011719 91.050781 350.050781 121.859375 368.347656 L 132.8125 374.855469 L 143.765625 368.347656 C 159.871094 358.78125 174.605469 347.101562 187.578125 333.707031 C 177.5 323.300781 168.484375 311.863281 160.722656 299.578125 C 152.433594 308.800781 143.089844 317.148438 132.8125 324.402344 " fill-opacity="1" fill-rule="nonzero"/></g><g clip-path="url(#31e625d6cd)"><path fill="#80cb2b" d="M 327.933594 81.914062 C 309.914062 50.953125 284.105469 24.914062 253.296875 6.617188 L 242.34375 0.109375 L 242.34375 50.5625 C 286.507812 81.738281 313.457031 133.074219 313.457031 187.480469 C 313.457031 241.890625 286.507812 293.226562 242.34375 324.402344 C 218.613281 307.648438 199.855469 285.078125 187.578125 259.332031 C 184.613281 253.121094 182.027344 246.722656 179.839844 240.179688 L 179.808594 240.089844 C 179.589844 239.429688 179.375 238.769531 179.164062 238.101562 C 179.132812 238.007812 179.101562 237.910156 179.070312 237.816406 C 178.871094 237.195312 178.679688 236.570312 178.488281 235.941406 C 178.445312 235.804688 178.40625 235.671875 178.363281 235.539062 C 178.183594 234.9375 178.003906 234.332031 177.828125 233.730469 C 177.78125 233.570312 177.738281 233.410156 177.691406 233.25 C 177.523438 232.660156 177.355469 232.074219 177.195312 231.484375 C 177.148438 231.3125 177.097656 231.132812 177.050781 230.957031 C 176.894531 230.375 176.738281 229.796875 176.585938 229.210938 C 176.539062 229.035156 176.492188 228.851562 176.445312 228.671875 C 176.296875 228.089844 176.148438 227.5 176.007812 226.917969 C 175.964844 226.746094 175.921875 226.570312 175.882812 226.394531 C 175.738281 225.800781 175.59375 225.203125 175.457031 224.605469 C 175.425781 224.460938 175.394531 224.324219 175.363281 224.1875 C 175.21875 223.550781 175.078125 222.914062 174.9375 222.277344 L 174.929688 222.222656 C 174.472656 220.101562 174.058594 217.96875 173.6875 215.824219 C 173.664062 215.683594 173.636719 215.546875 173.613281 215.402344 C 173.523438 214.890625 173.441406 214.378906 173.359375 213.867188 C 173.3125 213.578125 173.265625 213.292969 173.21875 213.003906 C 173.148438 212.539062 173.078125 212.078125 173.011719 211.617188 C 172.960938 211.273438 172.910156 210.933594 172.863281 210.589844 C 172.800781 210.160156 172.742188 209.722656 172.683594 209.285156 C 172.636719 208.914062 172.585938 208.546875 172.539062 208.171875 C 172.484375 207.753906 172.433594 207.335938 172.386719 206.910156 C 172.339844 206.523438 172.292969 206.136719 172.25 205.746094 C 172.203125 205.335938 172.160156 204.929688 172.121094 204.523438 C 172.078125 204.117188 172.035156 203.714844 171.996094 203.304688 C 171.957031 202.910156 171.921875 202.511719 171.886719 202.117188 C 171.847656 201.695312 171.816406 201.277344 171.78125 200.855469 C 171.75 200.46875 171.71875 200.085938 171.691406 199.699219 C 171.65625 199.265625 171.628906 198.828125 171.597656 198.394531 C 171.574219 198.015625 171.550781 197.644531 171.527344 197.265625 C 171.5 196.816406 171.476562 196.363281 171.453125 195.914062 C 171.433594 195.550781 171.414062 195.191406 171.398438 194.828125 C 171.378906 194.351562 171.359375 193.871094 171.34375 193.390625 C 171.332031 193.058594 171.316406 192.722656 171.308594 192.386719 C 171.289062 191.847656 171.28125 191.304688 171.269531 190.765625 C 171.265625 190.488281 171.257812 190.214844 171.253906 189.9375 C 171.238281 189.121094 171.234375 188.300781 171.234375 187.480469 C 171.234375 186.742188 171.238281 186.007812 171.25 185.273438 C 171.253906 185.023438 171.257812 184.773438 171.261719 184.523438 C 171.273438 184.035156 171.28125 183.546875 171.292969 183.066406 C 171.300781 182.765625 171.3125 182.46875 171.320312 182.171875 C 171.335938 181.734375 171.351562 181.300781 171.367188 180.863281 C 171.382812 180.542969 171.394531 180.222656 171.410156 179.902344 C 171.429688 179.492188 171.449219 179.078125 171.472656 178.667969 C 171.488281 178.335938 171.507812 178.003906 171.527344 177.671875 C 171.550781 177.273438 171.578125 176.875 171.605469 176.480469 C 171.628906 176.136719 171.648438 175.796875 171.675781 175.457031 C 171.703125 175.066406 171.734375 174.675781 171.765625 174.285156 C 171.792969 173.945312 171.820312 173.601562 171.847656 173.257812 C 171.886719 172.84375 171.925781 172.425781 171.964844 172.011719 C 172.03125 171.328125 172.097656 170.644531 172.171875 169.960938 C 172.203125 169.671875 172.234375 169.378906 172.265625 169.082031 C 172.3125 168.65625 172.363281 168.226562 172.414062 167.796875 C 172.449219 167.515625 172.484375 167.234375 172.519531 166.953125 C 172.574219 166.515625 172.632812 166.078125 172.6875 165.640625 C 172.726562 165.371094 172.761719 165.101562 172.800781 164.835938 C 172.859375 164.386719 172.925781 163.9375 172.988281 163.492188 C 173.027344 163.242188 173.0625 162.996094 173.101562 162.75 C 173.171875 162.28125 173.242188 161.816406 173.316406 161.351562 C 173.351562 161.144531 173.386719 160.941406 173.417969 160.730469 C 173.5 160.230469 173.585938 159.726562 173.671875 159.222656 L 173.679688 159.183594 C 173.90625 157.878906 174.148438 156.582031 174.402344 155.289062 C 177.132812 141.519531 181.582031 128.199219 187.578125 115.632812 L 187.578125 41.257812 C 177.5 51.664062 168.484375 63.101562 160.722656 75.386719 C 159.363281 77.539062 158.039062 79.710938 156.757812 81.914062 C 156.546875 82.277344 156.339844 82.644531 156.128906 83.011719 C 151.585938 90.929688 147.582031 99.117188 144.125 107.53125 L 144.121094 107.542969 C 143.691406 108.589844 143.269531 109.636719 142.859375 110.6875 L 142.84375 110.730469 C 142.433594 111.773438 142.035156 112.816406 141.640625 113.863281 L 141.617188 113.9375 C 141.230469 114.976562 140.851562 116.015625 140.480469 117.054688 C 140.464844 117.097656 140.453125 117.136719 140.4375 117.175781 C 140.074219 118.207031 139.714844 119.238281 139.371094 120.269531 C 139.351562 120.324219 139.332031 120.378906 139.316406 120.429688 C 138.972656 121.449219 138.636719 122.472656 138.308594 123.496094 C 138.289062 123.570312 138.265625 123.644531 138.242188 123.71875 C 137.921875 124.726562 137.605469 125.734375 137.304688 126.746094 C 137.273438 126.835938 137.25 126.925781 137.222656 127.019531 C 136.925781 128.011719 136.632812 129.011719 136.347656 130.011719 C 136.316406 130.121094 136.285156 130.234375 136.257812 130.34375 C 135.980469 131.324219 135.707031 132.304688 135.449219 133.289062 C 135.410156 133.421875 135.378906 133.554688 135.34375 133.691406 C 135.089844 134.652344 134.839844 135.617188 134.597656 136.582031 C 134.558594 136.742188 134.523438 136.898438 134.484375 137.054688 C 134.25 138 134.023438 138.945312 133.800781 139.890625 C 133.757812 140.074219 133.71875 140.261719 133.675781 140.445312 C 133.464844 141.367188 133.257812 142.289062 133.058594 143.21875 C 133.015625 143.425781 132.972656 143.636719 132.929688 143.847656 C 132.738281 144.75 132.550781 145.652344 132.371094 146.558594 C 132.324219 146.792969 132.28125 147.027344 132.234375 147.261719 C 132.0625 148.140625 131.894531 149.023438 131.734375 149.902344 C 131.6875 150.175781 131.640625 150.445312 131.59375 150.714844 C 131.441406 151.566406 131.292969 152.414062 131.152344 153.273438 C 131.105469 153.566406 131.058594 153.867188 131.011719 154.164062 C 130.878906 154.992188 130.746094 155.816406 130.625 156.648438 C 130.578125 156.980469 130.53125 157.316406 130.484375 157.648438 C 130.371094 158.441406 130.257812 159.238281 130.152344 160.035156 C 130.101562 160.402344 130.058594 160.777344 130.015625 161.144531 C 129.917969 161.910156 129.820312 162.671875 129.734375 163.429688 C 129.6875 163.84375 129.644531 164.253906 129.601562 164.667969 C 129.519531 165.390625 129.441406 166.117188 129.371094 166.84375 C 129.324219 167.292969 129.289062 167.746094 129.246094 168.191406 C 129.183594 168.882812 129.117188 169.570312 129.058594 170.261719 C 129.019531 170.753906 128.988281 171.246094 128.949219 171.742188 C 128.902344 172.390625 128.851562 173.039062 128.808594 173.691406 C 128.769531 174.234375 128.742188 174.785156 128.714844 175.328125 C 128.679688 175.925781 128.640625 176.527344 128.609375 177.128906 C 128.578125 177.742188 128.558594 178.359375 128.535156 178.980469 C 128.511719 179.507812 128.484375 180.042969 128.46875 180.570312 C 128.445312 181.289062 128.429688 182.007812 128.414062 182.722656 C 128.40625 183.15625 128.390625 183.59375 128.382812 184.023438 C 128.363281 185.175781 128.355469 186.328125 128.355469 187.480469 C 128.355469 224.613281 138.175781 261.117188 156.757812 293.050781 C 157.390625 294.140625 158.035156 295.21875 158.691406 296.296875 C 158.722656 296.351562 158.75 296.398438 158.785156 296.449219 C 176.683594 325.917969 201.714844 350.722656 231.390625 368.347656 L 242.34375 374.855469 L 253.296875 368.347656 C 284.105469 350.050781 309.914062 324.011719 327.933594 293.050781 C 346.511719 261.117188 356.335938 224.613281 356.335938 187.480469 C 356.335938 150.351562 346.511719 113.847656 327.933594 81.914062 " fill-opacity="1" fill-rule="nonzero"/></g><path fill="#00660a" d="M 192.148438 126.101562 C 199.800781 145.414062 203.921875 166.214844 203.921875 187.480469 C 203.921875 206.589844 200.59375 225.320312 194.367188 242.929688 C 195.796875 246.632812 197.371094 250.289062 199.074219 253.855469 C 204.964844 266.203125 212.4375 277.683594 221.234375 287.996094 C 237.96875 257.289062 246.804688 222.671875 246.804688 187.480469 C 246.804688 150.351562 236.980469 113.847656 218.398438 81.914062 C 217.121094 79.710938 215.792969 77.539062 214.433594 75.386719 C 206.671875 63.101562 197.660156 51.664062 187.578125 41.257812 L 187.578125 115.632812 L 192.339844 125.613281 L 192.148438 126.101562 " fill-opacity="1" fill-rule="nonzero"/></svg>