<svg xmlns="http://www.w3.org/2000/svg" xmlns:xlink="http://www.w3.org/1999/xlink" width="180" zoomAndPan="magnify" viewBox="0 0 135 30.000001" height="40" preserveAspectRatio="xMidYMid meet" version="1.0"><defs><g/><clipPath id="065ef0a417"><path d="M 126 10 L 132.820312 10 L 132.820312 21 L 126 21 Z M 126 10 " clip-rule="nonzero"/></clipPath><clipPath id="6df85e55b3"><path d="M 5.082031 3.898438 L 15 3.898438 L 15 24.949219 L 5.082031 24.949219 Z M 5.082031 3.898438 " clip-rule="nonzero"/></clipPath><clipPath id="4927443078"><path d="M 11 3.898438 L 23.953125 3.898438 L 23.953125 24.949219 L 11 24.949219 Z M 11 3.898438 " clip-rule="nonzero"/></clipPath></defs><g fill="#737373" fill-opacity="1"><g transform="translate(23.46621, 20.939291)"><g><path d="M 9.253906 -3.871094 L 10.503906 0 L 13.878906 0 L 8.996094 -13.703125 L 5.144531 -13.703125 L 0.199219 0 L 3.515625 0 L 4.785156 -3.871094 Z M 7.03125 -11 L 8.480469 -6.316406 L 5.558594 -6.316406 Z M 7.03125 -11 "/></g></g></g><g fill="#737373" fill-opacity="1"><g transform="translate(37.168022, 20.939291)"><g><path d="M 11.835938 -10.585938 L 8.71875 -10.585938 L 8.71875 -9.195312 L 8.023438 -10.304688 C 7.488281 -10.644531 6.433594 -10.863281 5.558594 -10.863281 C 2.839844 -10.863281 0.515625 -8.996094 0.515625 -5.203125 C 0.515625 -2.066406 2.421875 -0.0195312 5.363281 -0.0195312 C 6.433594 -0.0195312 7.328125 -0.277344 7.921875 -0.714844 L 8.71875 -1.886719 L 8.71875 -1.609375 C 8.71875 -1.113281 8.699219 -0.65625 8.679688 -0.277344 C 8.597656 1.289062 7.585938 2.027344 6.058594 2.027344 C 4.765625 2.027344 3.910156 1.507812 3.8125 0.65625 L 3.792969 0.476562 L 0.773438 0.476562 L 0.792969 0.675781 C 1.03125 3.039062 2.859375 4.328125 5.976562 4.328125 C 9.433594 4.328125 11.695312 2.761719 11.816406 -0.636719 C 11.835938 -1.210938 11.835938 -2.027344 11.835938 -2.679688 Z M 6.195312 -2.164062 C 4.726562 -2.164062 3.714844 -3.355469 3.714844 -5.441406 C 3.714844 -7.746094 4.785156 -8.71875 6.296875 -8.71875 C 7.464844 -8.71875 8.71875 -7.921875 8.71875 -5.660156 L 8.71875 -5.460938 C 8.71875 -3.039062 7.605469 -2.164062 6.195312 -2.164062 Z M 6.195312 -2.164062 "/></g></g></g><g fill="#737373" fill-opacity="1"><g transform="translate(50.194672, 20.939291)"><g><path d="M 7.011719 -10.863281 C 6.394531 -10.863281 5.621094 -10.585938 5.082031 -10.027344 L 4.289062 -8.558594 L 4.289062 -10.585938 L 1.171875 -10.585938 L 1.171875 0 L 4.289062 0 L 4.289062 -4.429688 C 4.289062 -7.425781 5.34375 -8.417969 7.804688 -8.261719 L 7.804688 -10.78125 C 7.566406 -10.824219 7.347656 -10.863281 7.011719 -10.863281 Z M 7.011719 -10.863281 "/></g></g></g><g fill="#737373" fill-opacity="1"><g transform="translate(58.098028, 20.939291)"><g><path d="M 2.71875 -14.675781 C 1.726562 -14.675781 1.074219 -14.058594 1.074219 -13.105469 C 1.074219 -12.132812 1.726562 -11.519531 2.71875 -11.519531 C 3.714844 -11.519531 4.386719 -12.132812 4.386719 -13.105469 C 4.386719 -14.058594 3.714844 -14.675781 2.71875 -14.675781 Z M 4.289062 0 L 4.289062 -10.585938 L 1.171875 -10.585938 L 1.171875 0 Z M 4.289062 0 "/></g></g></g><g fill="#a6a6a6" fill-opacity="1"><g transform="translate(63.578357, 20.939291)"><g><path d="M 11.855469 -2.621094 L 4.804688 -2.621094 L 4.804688 -13.703125 L 1.6875 -13.703125 L 1.6875 0 L 11.855469 0 Z M 11.855469 -2.621094 "/></g></g></g><g fill="#a6a6a6" fill-opacity="1"><g transform="translate(75.790834, 20.939291)"><g><path d="M 7.347656 0 L 10.386719 0 C 10.226562 -1.171875 10.1875 -1.886719 10.1875 -2.679688 L 10.1875 -5.898438 C 10.1875 -6.511719 10.167969 -7.109375 10.128906 -7.605469 C 9.96875 -9.492188 8.835938 -10.863281 5.699219 -10.863281 C 3.117188 -10.863281 1.074219 -9.492188 1.011719 -7.070312 L 3.992188 -7.070312 C 4.070312 -8.121094 4.605469 -8.71875 5.582031 -8.71875 C 6.511719 -8.71875 6.988281 -8.203125 7.050781 -7.566406 C 7.089844 -7.207031 7.089844 -6.929688 7.089844 -6.652344 L 7.089844 -6.472656 L 6.414062 -6.472656 C 2.679688 -6.472656 0.636719 -5.125 0.636719 -2.820312 C 0.636719 -0.8125 2.242188 0.277344 4.03125 0.277344 C 5.003906 0.277344 5.898438 0.0585938 6.652344 -0.417969 L 7.128906 -1.550781 Z M 5.261719 -1.867188 C 4.410156 -1.867188 3.832031 -2.285156 3.832031 -3.078125 C 3.832031 -4.308594 5.164062 -4.785156 7.089844 -4.625 L 7.089844 -3.851562 C 7.089844 -2.542969 6.195312 -1.867188 5.261719 -1.867188 Z M 5.261719 -1.867188 "/></g></g></g><g fill="#a6a6a6" fill-opacity="1"><g transform="translate(87.169292, 20.939291)"><g><path d="M 11.835938 -14.59375 L 8.71875 -14.59375 L 8.71875 -9.195312 L 8.023438 -10.304688 C 7.488281 -10.644531 6.433594 -10.863281 5.558594 -10.863281 C 2.839844 -10.863281 0.515625 -8.875 0.515625 -5.082031 C 0.515625 -1.945312 2.285156 0.277344 5.203125 0.277344 C 6.273438 0.277344 7.328125 0.0390625 7.921875 -0.417969 L 8.71875 -1.589844 L 8.71875 0 L 11.835938 0 Z M 6.195312 -1.867188 C 4.726562 -1.867188 3.714844 -3.175781 3.714844 -5.261719 C 3.714844 -7.566406 4.785156 -8.71875 6.296875 -8.71875 C 7.464844 -8.71875 8.71875 -7.921875 8.71875 -5.660156 L 8.71875 -5.164062 C 8.71875 -2.742188 7.605469 -1.867188 6.195312 -1.867188 Z M 6.195312 -1.867188 "/></g></g></g><g fill="#a6a6a6" fill-opacity="1"><g transform="translate(100.195943, 20.939291)"><g><path d="M 11.835938 -14.59375 L 8.71875 -14.59375 L 8.71875 -9.195312 L 8.023438 -10.304688 C 7.488281 -10.644531 6.433594 -10.863281 5.558594 -10.863281 C 2.839844 -10.863281 0.515625 -8.875 0.515625 -5.082031 C 0.515625 -1.945312 2.285156 0.277344 5.203125 0.277344 C 6.273438 0.277344 7.328125 0.0390625 7.921875 -0.417969 L 8.71875 -1.589844 L 8.71875 0 L 11.835938 0 Z M 6.195312 -1.867188 C 4.726562 -1.867188 3.714844 -3.175781 3.714844 -5.261719 C 3.714844 -7.566406 4.785156 -8.71875 6.296875 -8.71875 C 7.464844 -8.71875 8.71875 -7.921875 8.71875 -5.660156 L 8.71875 -5.164062 C 8.71875 -2.742188 7.605469 -1.867188 6.195312 -1.867188 Z M 6.195312 -1.867188 "/></g></g></g><g fill="#a6a6a6" fill-opacity="1"><g transform="translate(113.222593, 20.939291)"><g><path d="M 11.121094 -5.480469 C 11.121094 -8.300781 9.371094 -10.863281 5.996094 -10.863281 C 2.640625 -10.863281 0.515625 -8.441406 0.515625 -5.261719 C 0.515625 -1.527344 2.839844 0.277344 5.796875 0.277344 C 8.378906 0.277344 10.367188 -1.011719 10.941406 -3.457031 L 7.863281 -3.457031 C 7.683594 -2.460938 6.949219 -1.867188 5.859375 -1.867188 C 4.6875 -1.867188 3.8125 -2.460938 3.632812 -4.488281 L 11.0625 -4.488281 C 11.101562 -4.863281 11.121094 -5.203125 11.121094 -5.480469 Z M 5.859375 -8.71875 C 7.011719 -8.71875 7.703125 -7.941406 7.882812 -6.453125 L 3.714844 -6.453125 C 3.972656 -8.023438 4.746094 -8.71875 5.859375 -8.71875 Z M 5.859375 -8.71875 "/></g></g></g><g clip-path="url(#065ef0a417)"><g fill="#a6a6a6" fill-opacity="1"><g transform="translate(124.898911, 20.939291)"><g><path d="M 7.011719 -10.863281 C 6.394531 -10.863281 5.621094 -10.585938 5.082031 -10.027344 L 4.289062 -8.558594 L 4.289062 -10.585938 L 1.171875 -10.585938 L 1.171875 0 L 4.289062 0 L 4.289062 -4.429688 C 4.289062 -7.425781 5.34375 -8.417969 7.804688 -8.261719 L 7.804688 -10.78125 C 7.566406 -10.824219 7.347656 -10.863281 7.011719 -10.863281 Z M 7.011719 -10.863281 "/></g></g></g></g><path fill="#100f0d" d="M 14.515625 18.457031 C 14.125 19.273438 13.621094 20.039062 13.015625 20.714844 C 13.449219 21.40625 13.953125 22.046875 14.515625 22.632812 C 15.078125 22.046875 15.582031 21.40625 16.019531 20.714844 C 15.410156 20.039062 14.90625 19.273438 14.515625 18.457031 " fill-opacity="1" fill-rule="nonzero"/><g clip-path="url(#6df85e55b3)"><path fill="#545454" d="M 11.453125 22.109375 C 8.984375 20.359375 7.476562 17.476562 7.476562 14.421875 C 7.476562 11.371094 8.984375 8.488281 11.453125 6.738281 L 11.453125 3.90625 L 10.839844 4.269531 C 9.117188 5.296875 7.675781 6.761719 6.667969 8.496094 C 5.628906 10.289062 5.082031 12.339844 5.082031 14.421875 C 5.082031 16.507812 5.628906 18.554688 6.667969 20.347656 C 7.675781 22.085938 9.117188 23.546875 10.839844 24.574219 L 11.453125 24.941406 L 12.066406 24.574219 C 12.96875 24.039062 13.789062 23.382812 14.515625 22.632812 C 13.953125 22.046875 13.449219 21.40625 13.015625 20.714844 C 12.550781 21.234375 12.027344 21.703125 11.453125 22.109375 " fill-opacity="1" fill-rule="nonzero"/></g><g clip-path="url(#4927443078)"><path fill="#737373" d="M 22.363281 8.496094 C 21.355469 6.761719 19.914062 5.296875 18.191406 4.269531 L 17.578125 3.90625 L 17.578125 6.738281 C 20.046875 8.488281 21.554688 11.371094 21.554688 14.421875 C 21.554688 17.476562 20.046875 20.359375 17.578125 22.109375 C 16.25 21.167969 15.203125 19.902344 14.515625 18.457031 C 14.351562 18.109375 14.207031 17.75 14.082031 17.382812 L 14.082031 17.375 C 14.070312 17.339844 14.058594 17.300781 14.046875 17.265625 C 14.042969 17.257812 14.042969 17.253906 14.039062 17.25 C 14.03125 17.214844 14.019531 17.179688 14.007812 17.144531 C 14.003906 17.136719 14.003906 17.128906 14 17.121094 C 13.992188 17.085938 13.980469 17.054688 13.972656 17.019531 C 13.96875 17.011719 13.964844 17 13.964844 16.992188 C 13.953125 16.960938 13.945312 16.925781 13.933594 16.894531 C 13.933594 16.882812 13.929688 16.875 13.925781 16.863281 C 13.917969 16.832031 13.910156 16.796875 13.902344 16.765625 C 13.898438 16.753906 13.894531 16.746094 13.894531 16.734375 C 13.886719 16.703125 13.878906 16.667969 13.867188 16.636719 C 13.867188 16.628906 13.863281 16.617188 13.863281 16.609375 C 13.855469 16.574219 13.847656 16.539062 13.839844 16.507812 C 13.835938 16.5 13.835938 16.492188 13.832031 16.484375 C 13.824219 16.449219 13.816406 16.410156 13.808594 16.375 C 13.785156 16.253906 13.761719 16.132812 13.738281 16.015625 C 13.738281 16.007812 13.738281 16 13.734375 15.992188 C 13.730469 15.960938 13.726562 15.933594 13.722656 15.90625 C 13.71875 15.886719 13.714844 15.871094 13.714844 15.855469 C 13.710938 15.828125 13.707031 15.804688 13.703125 15.777344 C 13.699219 15.757812 13.695312 15.738281 13.691406 15.71875 C 13.691406 15.695312 13.6875 15.671875 13.683594 15.648438 C 13.679688 15.625 13.679688 15.605469 13.675781 15.585938 C 13.671875 15.5625 13.667969 15.539062 13.667969 15.515625 C 13.664062 15.492188 13.660156 15.46875 13.660156 15.449219 C 13.65625 15.425781 13.652344 15.402344 13.652344 15.378906 C 13.648438 15.355469 13.648438 15.335938 13.644531 15.3125 C 13.644531 15.289062 13.640625 15.265625 13.640625 15.246094 C 13.636719 15.222656 13.632812 15.199219 13.632812 15.175781 C 13.632812 15.152344 13.628906 15.128906 13.628906 15.109375 C 13.625 15.085938 13.625 15.058594 13.621094 15.035156 C 13.621094 15.015625 13.621094 14.992188 13.617188 14.972656 C 13.617188 14.945312 13.617188 14.921875 13.613281 14.898438 C 13.613281 14.875 13.613281 14.855469 13.613281 14.835938 C 13.609375 14.808594 13.609375 14.78125 13.609375 14.753906 C 13.609375 14.734375 13.605469 14.71875 13.605469 14.699219 C 13.605469 14.667969 13.605469 14.636719 13.605469 14.609375 C 13.605469 14.59375 13.601562 14.578125 13.601562 14.5625 C 13.601562 14.515625 13.601562 14.46875 13.601562 14.421875 C 13.601562 14.382812 13.601562 14.339844 13.601562 14.300781 C 13.601562 14.285156 13.605469 14.269531 13.605469 14.257812 C 13.605469 14.230469 13.605469 14.203125 13.605469 14.175781 C 13.605469 14.160156 13.605469 14.140625 13.605469 14.125 C 13.609375 14.101562 13.609375 14.078125 13.609375 14.050781 C 13.609375 14.035156 13.613281 14.015625 13.613281 13.996094 C 13.613281 13.976562 13.613281 13.953125 13.617188 13.929688 C 13.617188 13.910156 13.617188 13.890625 13.617188 13.871094 C 13.621094 13.851562 13.621094 13.828125 13.621094 13.804688 C 13.625 13.785156 13.625 13.765625 13.625 13.75 C 13.628906 13.726562 13.628906 13.703125 13.632812 13.683594 C 13.632812 13.664062 13.636719 13.644531 13.636719 13.625 C 13.640625 13.601562 13.640625 13.578125 13.644531 13.554688 C 13.648438 13.515625 13.652344 13.476562 13.65625 13.441406 C 13.65625 13.421875 13.65625 13.40625 13.660156 13.390625 C 13.664062 13.367188 13.664062 13.34375 13.667969 13.320312 C 13.671875 13.300781 13.671875 13.285156 13.675781 13.269531 C 13.675781 13.246094 13.679688 13.222656 13.683594 13.199219 C 13.6875 13.183594 13.6875 13.167969 13.691406 13.152344 C 13.691406 13.125 13.695312 13.101562 13.699219 13.078125 C 13.703125 13.0625 13.703125 13.050781 13.707031 13.035156 C 13.710938 13.007812 13.714844 12.984375 13.71875 12.957031 C 13.71875 12.945312 13.722656 12.933594 13.722656 12.921875 C 13.730469 12.894531 13.734375 12.867188 13.738281 12.835938 C 13.75 12.761719 13.765625 12.6875 13.78125 12.617188 C 13.933594 11.84375 14.179688 11.09375 14.515625 10.390625 L 14.515625 6.214844 C 13.953125 6.800781 13.449219 7.441406 13.015625 8.132812 C 12.9375 8.253906 12.863281 8.375 12.792969 8.496094 C 12.78125 8.519531 12.769531 8.539062 12.757812 8.558594 C 12.503906 9.003906 12.28125 9.464844 12.085938 9.9375 C 12.0625 9.996094 12.039062 10.054688 12.015625 10.113281 C 11.992188 10.171875 11.96875 10.230469 11.949219 10.292969 L 11.945312 10.296875 C 11.925781 10.355469 11.902344 10.410156 11.882812 10.46875 C 11.882812 10.472656 11.882812 10.476562 11.878906 10.476562 C 11.859375 10.535156 11.839844 10.59375 11.820312 10.652344 C 11.820312 10.652344 11.820312 10.65625 11.816406 10.660156 C 11.796875 10.71875 11.78125 10.773438 11.761719 10.832031 C 11.761719 10.835938 11.757812 10.839844 11.757812 10.84375 C 11.738281 10.902344 11.722656 10.957031 11.703125 11.015625 C 11.703125 11.019531 11.703125 11.023438 11.699219 11.03125 C 11.683594 11.085938 11.667969 11.140625 11.652344 11.199219 C 11.648438 11.203125 11.648438 11.210938 11.648438 11.214844 C 11.632812 11.269531 11.617188 11.328125 11.601562 11.382812 C 11.597656 11.390625 11.597656 11.394531 11.59375 11.402344 C 11.582031 11.457031 11.566406 11.511719 11.554688 11.566406 C 11.550781 11.574219 11.550781 11.585938 11.546875 11.59375 C 11.535156 11.644531 11.523438 11.699219 11.507812 11.753906 C 11.507812 11.761719 11.503906 11.773438 11.503906 11.78125 C 11.492188 11.835938 11.480469 11.886719 11.46875 11.9375 C 11.464844 11.949219 11.464844 11.960938 11.460938 11.972656 C 11.449219 12.023438 11.4375 12.074219 11.429688 12.125 C 11.425781 12.140625 11.425781 12.152344 11.421875 12.164062 C 11.410156 12.214844 11.402344 12.265625 11.394531 12.3125 C 11.390625 12.328125 11.386719 12.34375 11.386719 12.359375 C 11.378906 12.40625 11.367188 12.453125 11.359375 12.503906 C 11.359375 12.519531 11.355469 12.535156 11.351562 12.554688 C 11.347656 12.597656 11.339844 12.644531 11.332031 12.691406 C 11.328125 12.710938 11.328125 12.730469 11.324219 12.75 C 11.316406 12.792969 11.3125 12.839844 11.304688 12.882812 C 11.300781 12.902344 11.300781 12.925781 11.296875 12.945312 C 11.292969 12.988281 11.285156 13.03125 11.28125 13.074219 C 11.277344 13.097656 11.277344 13.121094 11.273438 13.144531 C 11.269531 13.183594 11.265625 13.222656 11.261719 13.265625 C 11.257812 13.289062 11.257812 13.316406 11.253906 13.339844 C 11.25 13.378906 11.246094 13.417969 11.246094 13.457031 C 11.242188 13.484375 11.238281 13.511719 11.238281 13.539062 C 11.234375 13.578125 11.234375 13.613281 11.230469 13.648438 C 11.226562 13.679688 11.226562 13.710938 11.226562 13.742188 C 11.222656 13.773438 11.21875 13.808594 11.21875 13.84375 C 11.21875 13.875 11.214844 13.910156 11.214844 13.945312 C 11.214844 13.976562 11.210938 14.003906 11.210938 14.035156 C 11.210938 14.074219 11.207031 14.117188 11.207031 14.15625 C 11.207031 14.179688 11.207031 14.203125 11.207031 14.230469 C 11.207031 14.292969 11.203125 14.359375 11.203125 14.421875 C 11.203125 16.507812 11.753906 18.554688 12.792969 20.347656 C 12.828125 20.410156 12.863281 20.46875 12.902344 20.53125 C 12.902344 20.535156 12.90625 20.535156 12.90625 20.539062 C 13.90625 22.195312 15.304688 23.585938 16.964844 24.574219 L 17.578125 24.941406 L 18.191406 24.574219 C 19.914062 23.546875 21.355469 22.085938 22.363281 20.347656 C 23.402344 18.554688 23.953125 16.507812 23.953125 14.421875 C 23.953125 12.339844 23.402344 10.289062 22.363281 8.496094 " fill-opacity="1" fill-rule="nonzero"/></g><path fill="#545454" d="M 14.773438 10.976562 C 15.199219 12.0625 15.429688 13.230469 15.429688 14.421875 C 15.429688 15.496094 15.242188 16.546875 14.894531 17.535156 C 14.976562 17.742188 15.0625 17.949219 15.160156 18.148438 C 15.488281 18.84375 15.90625 19.484375 16.398438 20.066406 C 17.332031 18.339844 17.828125 16.398438 17.828125 14.421875 C 17.828125 12.339844 17.277344 10.289062 16.238281 8.496094 C 16.167969 8.375 16.09375 8.253906 16.019531 8.132812 C 15.582031 7.441406 15.078125 6.800781 14.515625 6.214844 L 14.515625 10.390625 L 14.78125 10.949219 L 14.773438 10.976562 " fill-opacity="1" fill-rule="nonzero"/></svg>