<svg xmlns="http://www.w3.org/2000/svg" xmlns:xlink="http://www.w3.org/1999/xlink" width="180" zoomAndPan="magnify" viewBox="0 0 135 30.000001" height="40" preserveAspectRatio="xMidYMid meet" version="1.0"><defs><g/><clipPath id="2070308e13"><path d="M 46 1.535156 L 49 1.535156 L 49 5 L 46 5 Z M 46 1.535156 " clip-rule="nonzero"/></clipPath><clipPath id="ea63c27462"><path d="M 44.214844 8 L 50.746094 8 L 50.746094 10.96875 L 44.214844 10.96875 Z M 44.214844 8 " clip-rule="nonzero"/></clipPath></defs><g fill="#00660a" fill-opacity="1"><g transform="translate(4.683718, 21.774195)"><g><path d="M 10.632812 -4.449219 L 12.070312 0 L 15.949219 0 L 10.335938 -15.746094 L 5.910156 -15.746094 L 0.226562 0 L 4.039062 0 L 5.5 -4.449219 Z M 8.078125 -12.640625 L 9.742188 -7.257812 L 6.390625 -7.257812 Z M 8.078125 -12.640625 "/></g></g></g><g fill="#00660a" fill-opacity="1"><g transform="translate(20.427768, 21.774195)"><g><path d="M 13.601562 -12.164062 L 10.019531 -12.164062 L 10.019531 -10.566406 L 9.21875 -11.84375 C 8.601562 -12.230469 7.394531 -12.480469 6.390625 -12.480469 C 3.261719 -12.480469 0.59375 -10.335938 0.59375 -5.980469 C 0.59375 -2.375 2.785156 -0.0234375 6.160156 -0.0234375 C 7.394531 -0.0234375 8.421875 -0.320312 9.105469 -0.820312 L 10.019531 -2.167969 L 10.019531 -1.847656 C 10.019531 -1.277344 9.996094 -0.753906 9.972656 -0.320312 C 9.878906 1.484375 8.71875 2.328125 6.960938 2.328125 C 5.476562 2.328125 4.496094 1.734375 4.382812 0.753906 L 4.359375 0.546875 L 0.890625 0.546875 L 0.914062 0.777344 C 1.1875 3.492188 3.285156 4.976562 6.867188 4.976562 C 10.839844 4.976562 13.441406 3.171875 13.578125 -0.730469 C 13.601562 -1.390625 13.601562 -2.328125 13.601562 -3.082031 Z M 7.121094 -2.488281 C 5.429688 -2.488281 4.265625 -3.855469 4.265625 -6.253906 C 4.265625 -8.898438 5.5 -10.019531 7.234375 -10.019531 C 8.578125 -10.019531 10.019531 -9.105469 10.019531 -6.503906 L 10.019531 -6.273438 C 10.019531 -3.492188 8.738281 -2.488281 7.121094 -2.488281 Z M 7.121094 -2.488281 "/></g></g></g><g fill="#00660a" fill-opacity="1"><g transform="translate(35.396031, 21.774195)"><g><path d="M 8.054688 -12.480469 C 7.347656 -12.480469 6.457031 -12.164062 5.839844 -11.523438 L 4.929688 -9.835938 L 4.929688 -12.164062 L 1.347656 -12.164062 L 1.347656 0 L 4.929688 0 L 4.929688 -5.089844 C 4.929688 -8.535156 6.136719 -9.675781 8.96875 -9.492188 L 8.96875 -12.390625 C 8.695312 -12.4375 8.441406 -12.480469 8.054688 -12.480469 Z M 8.054688 -12.480469 "/></g></g></g><g fill="#00660a" fill-opacity="1"><g transform="translate(44.477383, 21.774195)"><g><path d="M 3.125 -16.863281 C 1.984375 -16.863281 1.230469 -16.15625 1.230469 -15.0625 C 1.230469 -13.941406 1.984375 -13.234375 3.125 -13.234375 C 4.265625 -13.234375 5.042969 -13.941406 5.042969 -15.0625 C 5.042969 -16.15625 4.265625 -16.863281 3.125 -16.863281 Z M 4.929688 0 L 4.929688 -12.164062 L 1.347656 -12.164062 L 1.347656 0 Z M 4.929688 0 "/></g></g></g><g fill="#000000" fill-opacity="1"><g transform="translate(50.772427, 21.774195)"><g><path d="M 13.625 -3.011719 L 5.523438 -3.011719 L 5.523438 -15.746094 L 1.941406 -15.746094 L 1.941406 0 L 13.625 0 Z M 13.625 -3.011719 "/></g></g></g><g fill="#000000" fill-opacity="1"><g transform="translate(64.805169, 21.774195)"><g><path d="M 8.441406 0 L 11.933594 0 C 11.753906 -1.347656 11.707031 -2.167969 11.707031 -3.082031 L 11.707031 -6.777344 C 11.707031 -7.484375 11.683594 -8.167969 11.636719 -8.738281 C 11.457031 -10.90625 10.15625 -12.480469 6.550781 -12.480469 C 3.582031 -12.480469 1.230469 -10.90625 1.164062 -8.125 L 4.585938 -8.125 C 4.679688 -9.332031 5.292969 -10.019531 6.414062 -10.019531 C 7.484375 -10.019531 8.03125 -9.425781 8.101562 -8.695312 C 8.148438 -8.285156 8.148438 -7.964844 8.148438 -7.644531 L 8.148438 -7.4375 L 7.371094 -7.4375 C 3.082031 -7.4375 0.730469 -5.886719 0.730469 -3.242188 C 0.730469 -0.9375 2.578125 0.320312 4.632812 0.320312 C 5.75 0.320312 6.777344 0.0703125 7.644531 -0.480469 L 8.191406 -1.78125 Z M 6.046875 -2.144531 C 5.066406 -2.144531 4.402344 -2.625 4.402344 -3.535156 C 4.402344 -4.953125 5.933594 -5.5 8.148438 -5.316406 L 8.148438 -4.425781 C 8.148438 -2.921875 7.121094 -2.144531 6.046875 -2.144531 Z M 6.046875 -2.144531 "/></g></g></g><g fill="#000000" fill-opacity="1"><g transform="translate(77.879575, 21.774195)"><g><path d="M 13.601562 -16.773438 L 10.019531 -16.773438 L 10.019531 -10.566406 L 9.21875 -11.84375 C 8.601562 -12.230469 7.394531 -12.480469 6.390625 -12.480469 C 3.261719 -12.480469 0.59375 -10.199219 0.59375 -5.839844 C 0.59375 -2.234375 2.625 0.320312 5.980469 0.320312 C 7.210938 0.320312 8.421875 0.046875 9.105469 -0.480469 L 10.019531 -1.824219 L 10.019531 0 L 13.601562 0 Z M 7.121094 -2.144531 C 5.429688 -2.144531 4.265625 -3.652344 4.265625 -6.046875 C 4.265625 -8.695312 5.5 -10.019531 7.234375 -10.019531 C 8.578125 -10.019531 10.019531 -9.105469 10.019531 -6.503906 L 10.019531 -5.933594 C 10.019531 -3.148438 8.738281 -2.144531 7.121094 -2.144531 Z M 7.121094 -2.144531 "/></g></g></g><g fill="#000000" fill-opacity="1"><g transform="translate(92.847837, 21.774195)"><g><path d="M 13.601562 -16.773438 L 10.019531 -16.773438 L 10.019531 -10.566406 L 9.21875 -11.84375 C 8.601562 -12.230469 7.394531 -12.480469 6.390625 -12.480469 C 3.261719 -12.480469 0.59375 -10.199219 0.59375 -5.839844 C 0.59375 -2.234375 2.625 0.320312 5.980469 0.320312 C 7.210938 0.320312 8.421875 0.046875 9.105469 -0.480469 L 10.019531 -1.824219 L 10.019531 0 L 13.601562 0 Z M 7.121094 -2.144531 C 5.429688 -2.144531 4.265625 -3.652344 4.265625 -6.046875 C 4.265625 -8.695312 5.5 -10.019531 7.234375 -10.019531 C 8.578125 -10.019531 10.019531 -9.105469 10.019531 -6.503906 L 10.019531 -5.933594 C 10.019531 -3.148438 8.738281 -2.144531 7.121094 -2.144531 Z M 7.121094 -2.144531 "/></g></g></g><g fill="#000000" fill-opacity="1"><g transform="translate(107.8161, 21.774195)"><g><path d="M 12.777344 -6.296875 C 12.777344 -9.539062 10.769531 -12.480469 6.890625 -12.480469 C 3.035156 -12.480469 0.59375 -9.699219 0.59375 -6.046875 C 0.59375 -1.757812 3.261719 0.320312 6.664062 0.320312 C 9.628906 0.320312 11.910156 -1.164062 12.574219 -3.96875 L 9.035156 -3.96875 C 8.832031 -2.828125 7.988281 -2.144531 6.730469 -2.144531 C 5.386719 -2.144531 4.382812 -2.828125 4.175781 -5.15625 L 12.710938 -5.15625 C 12.757812 -5.589844 12.777344 -5.980469 12.777344 -6.296875 Z M 6.730469 -10.019531 C 8.054688 -10.019531 8.855469 -9.128906 9.058594 -7.417969 L 4.265625 -7.417969 C 4.5625 -9.21875 5.453125 -10.019531 6.730469 -10.019531 Z M 6.730469 -10.019531 "/></g></g></g><g fill="#000000" fill-opacity="1"><g transform="translate(121.232766, 21.774195)"><g><path d="M 8.054688 -12.480469 C 7.347656 -12.480469 6.457031 -12.164062 5.839844 -11.523438 L 4.929688 -9.835938 L 4.929688 -12.164062 L 1.347656 -12.164062 L 1.347656 0 L 4.929688 0 L 4.929688 -5.089844 C 4.929688 -8.535156 6.136719 -9.675781 8.96875 -9.492188 L 8.96875 -12.390625 C 8.695312 -12.4375 8.441406 -12.480469 8.054688 -12.480469 Z M 8.054688 -12.480469 "/></g></g></g><g clip-path="url(#2070308e13)"><path fill="#00660a" d="M 48.066406 1.539062 C 48.066406 1.539062 45.59375 2.632812 46.53125 4.652344 C 48.671875 4.234375 48.066406 1.539062 48.066406 1.539062 " fill-opacity="1" fill-rule="nonzero"/></g><path fill="#9acd32" d="M 49.207031 2.496094 C 49.207031 2.496094 46.511719 2.414062 46.53125 4.652344 C 48.644531 5.199219 49.207031 2.496094 49.207031 2.496094 " fill-opacity="1" fill-rule="nonzero"/><path fill="#9acd32" d="M 47.480469 5.914062 C 46.742188 5.914062 46.144531 6.53125 46.144531 7.285156 C 46.144531 8.042969 46.742188 8.660156 47.480469 8.660156 C 48.21875 8.660156 48.820312 8.042969 48.820312 7.285156 C 48.820312 6.53125 48.21875 5.914062 47.480469 5.914062 Z M 47.480469 9.621094 C 46.875 9.621094 46.300781 9.378906 45.871094 8.9375 C 45.441406 8.496094 45.207031 7.910156 45.207031 7.285156 C 45.207031 6.664062 45.441406 6.078125 45.871094 5.636719 C 46.300781 5.195312 46.875 4.953125 47.480469 4.953125 C 48.089844 4.953125 48.660156 5.195312 49.089844 5.636719 C 49.519531 6.078125 49.753906 6.664062 49.753906 7.285156 C 49.753906 7.910156 49.519531 8.496094 49.089844 8.9375 C 48.660156 9.378906 48.089844 9.621094 47.480469 9.621094 " fill-opacity="1" fill-rule="nonzero"/><g clip-path="url(#ea63c27462)"><path fill="#00660a" d="M 50.140625 8.621094 C 49.992188 8.621094 49.851562 8.695312 49.765625 8.816406 C 49.246094 9.535156 48.417969 10.003906 47.480469 10.003906 C 46.546875 10.003906 45.714844 9.535156 45.199219 8.816406 C 45.109375 8.695312 44.96875 8.621094 44.820312 8.621094 C 44.4375 8.621094 44.214844 9.070312 44.441406 9.386719 C 44.554688 9.542969 44.679688 9.691406 44.8125 9.832031 C 45.160156 10.1875 45.5625 10.464844 46.011719 10.660156 C 46.476562 10.863281 46.972656 10.964844 47.480469 10.964844 C 47.988281 10.964844 48.484375 10.863281 48.949219 10.660156 C 49.398438 10.464844 49.800781 10.1875 50.148438 9.832031 C 50.28125 9.691406 50.40625 9.542969 50.519531 9.386719 C 50.746094 9.070312 50.523438 8.621094 50.140625 8.621094 " fill-opacity="1" fill-rule="nonzero"/></g><g fill="#ffffff" fill-opacity="1"><g transform="translate(46.977559, 7.867586)"><g><path d="M 0.898438 0 L 1.136719 0 L 0.722656 -1.125 L 0.4375 -1.125 L 0.0234375 0 L 0.261719 0 L 0.34375 -0.230469 L 0.816406 -0.230469 Z M 0.414062 -0.425781 L 0.582031 -0.90625 L 0.75 -0.425781 Z M 0.414062 -0.425781 "/></g></g></g></svg>